<svg xmlns="http://www.w3.org/2000/svg" xmlns:xlink="http://www.w3.org/1999/xlink" width="900" zoomAndPan="magnify" viewBox="0 0 675 675.000002" height="900" preserveAspectRatio="xMidYMid meet" version="1.0"><defs><g/><clipPath id="d1e30cc5ca"><path d="M 152.761719 33.40625 L 521.964844 33.40625 L 521.964844 460.277344 L 152.761719 460.277344 Z M 152.761719 33.40625 " clip-rule="nonzero"/></clipPath></defs><g clip-path="url(#d1e30cc5ca)"><path fill="#ffbd59" d="M 347.785156 39.375 L 521.964844 140.148438 L 521.964844 164.003906 L 511.628906 169.96875 L 511.628906 170.054688 L 441.835938 210.398438 L 441.835938 307.226562 L 358.03125 355.640625 L 358.03125 400.457031 L 408.910156 371.078125 L 408.996094 371.078125 L 480.542969 329.765625 L 480.542969 235.746094 L 521.964844 211.714844 L 521.964844 353.535156 L 429.664062 406.859375 L 429.664062 406.949219 L 337.363281 460.273438 L 316.695312 448.34375 L 316.695312 355.640625 L 296.027344 343.710938 L 337.363281 319.769531 L 400.328125 283.285156 L 400.328125 210.398438 L 368.886719 192.15625 L 337.363281 174.003906 L 274.398438 210.398438 L 274.398438 283.285156 L 296.027344 295.824219 L 296.027344 343.710938 L 232.890625 307.226562 L 232.890625 210.3125 L 194.269531 187.949219 L 194.269531 329.765625 L 265.730469 371.078125 L 265.816406 371.078125 L 275.449219 376.601562 L 275.449219 424.488281 L 245.0625 406.949219 L 245.0625 406.859375 L 152.761719 353.535156 L 152.761719 140.148438 L 173.429688 128.21875 L 183.761719 134.183594 L 253.644531 174.527344 L 337.363281 126.117188 L 347.785156 132.078125 L 421.082031 174.527344 L 459.875 152.074219 L 408.910156 122.605469 L 337.363281 81.296875 L 256.097656 128.21875 L 214.761719 104.277344 L 337.363281 33.410156 Z M 300.757812 234.78125 C 304.085938 234.78125 307.0625 236.097656 309.253906 238.289062 C 311.441406 240.484375 312.753906 243.554688 312.753906 246.886719 C 312.753906 250.128906 311.441406 253.199219 309.253906 255.394531 C 307.0625 257.585938 304.085938 258.902344 300.757812 258.902344 C 297.429688 258.902344 294.363281 257.585938 292.175781 255.394531 C 289.984375 253.199219 288.671875 250.128906 288.671875 246.886719 C 288.671875 243.554688 289.984375 240.484375 292.175781 238.289062 C 294.363281 236.097656 297.429688 234.78125 300.757812 234.78125 Z M 374.054688 234.78125 C 377.382812 234.78125 380.359375 236.097656 382.550781 238.289062 C 384.738281 240.484375 386.050781 243.554688 386.050781 246.886719 C 386.050781 250.128906 384.738281 253.199219 382.550781 255.394531 C 380.359375 257.585938 377.382812 258.902344 374.054688 258.902344 C 370.726562 258.902344 367.664062 257.585938 365.472656 255.394531 C 363.371094 253.199219 361.96875 250.128906 361.96875 246.886719 C 361.96875 243.554688 363.371094 240.484375 365.472656 238.378906 C 367.664062 236.097656 370.726562 234.78125 374.054688 234.78125 Z M 337.363281 234.78125 C 340.691406 234.78125 343.667969 236.097656 345.855469 238.289062 C 348.046875 240.484375 349.449219 243.554688 349.449219 246.886719 C 349.449219 250.128906 348.046875 253.199219 345.855469 255.394531 C 343.667969 257.585938 340.691406 258.902344 337.363281 258.902344 C 334.035156 258.902344 331.058594 257.585938 328.867188 255.394531 C 326.679688 253.199219 325.367188 250.128906 325.367188 246.886719 C 325.367188 243.554688 326.679688 240.484375 328.867188 238.289062 C 331.058594 236.097656 334.035156 234.78125 337.363281 234.78125 Z M 337.363281 234.78125 " fill-opacity="1" fill-rule="nonzero"/></g><g fill="#ffffff" fill-opacity="1"><g transform="translate(144.693445, 613.082382)"><g><path d="M 67.40625 0 L 62.796875 -17.5 L 32.453125 -17.5 L 27.734375 0 L 0 0 L 30.46875 -93.78125 L 64.140625 -93.78125 L 95 0 Z M 57.5625 -38.203125 L 53.53125 -53.53125 C 52.601562 -56.945312 51.46875 -61.359375 50.125 -66.765625 C 48.78125 -72.171875 47.894531 -76.046875 47.46875 -78.390625 C 47.082031 -76.222656 46.328125 -72.644531 45.203125 -67.65625 C 44.078125 -62.675781 41.570312 -52.859375 37.6875 -38.203125 Z M 57.5625 -38.203125 "/></g></g></g><g fill="#ffffff" fill-opacity="1"><g transform="translate(239.693383, 613.082382)"><g><path d="M 52.328125 -73.65625 C 54.492188 -73.65625 56.554688 -73.488281 58.515625 -73.15625 L 59.921875 -72.890625 L 57.6875 -49.328125 C 55.644531 -49.835938 52.8125 -50.09375 49.1875 -50.09375 C 43.738281 -50.09375 39.78125 -48.84375 37.3125 -46.34375 C 34.84375 -43.851562 33.609375 -40.265625 33.609375 -35.578125 L 33.609375 0 L 8.625 0 L 8.625 -72.390625 L 27.21875 -72.390625 L 31.109375 -60.828125 L 32.328125 -60.828125 C 34.410156 -64.660156 37.316406 -67.753906 41.046875 -70.109375 C 44.773438 -72.472656 48.535156 -73.65625 52.328125 -73.65625 Z M 52.328125 -73.65625 "/></g></g></g><g fill="#ffffff" fill-opacity="1"><g transform="translate(301.088769, 613.082382)"><g><path d="M 10.09375 -93.40625 L 42.671875 -93.40625 C 55.367188 -93.40625 64.796875 -91.519531 70.953125 -87.75 C 77.109375 -83.976562 80.1875 -78.113281 80.1875 -70.15625 C 80.1875 -64.914062 78.84375 -60.441406 76.15625 -56.734375 C 73.46875 -53.023438 69.929688 -50.640625 65.546875 -49.578125 L 65.546875 -48.9375 C 71.335938 -47.40625 75.53125 -44.847656 78.125 -41.265625 C 80.726562 -37.691406 82.03125 -33.050781 82.03125 -27.34375 C 82.03125 -18.863281 78.847656 -12.1875 72.484375 -7.3125 C 66.117188 -2.4375 57.441406 0 46.453125 0 L 10.09375 0 Z M 35.328125 -57.5625 L 42.9375 -57.5625 C 46.550781 -57.5625 49.347656 -58.304688 51.328125 -59.796875 C 53.316406 -61.285156 54.3125 -63.5 54.3125 -66.4375 C 54.3125 -71.675781 50.347656 -74.296875 42.421875 -74.296875 L 35.328125 -74.296875 Z M 35.328125 -39.09375 L 35.328125 -19.484375 L 44.203125 -19.484375 C 52.085938 -19.484375 56.03125 -22.804688 56.03125 -29.453125 C 56.03125 -32.554688 54.972656 -34.9375 52.859375 -36.59375 C 50.753906 -38.257812 47.703125 -39.09375 43.703125 -39.09375 Z M 35.328125 -39.09375 "/></g></g></g><g fill="#ffffff" fill-opacity="1"><g transform="translate(389.252799, 613.082382)"><g><path d="M 43.578125 1.28125 C 31.515625 1.28125 22.148438 -1.921875 15.484375 -8.328125 C 8.828125 -14.742188 5.5 -23.875 5.5 -35.71875 C 5.5 -47.9375 8.582031 -57.3125 14.75 -63.84375 C 20.925781 -70.382812 29.742188 -73.65625 41.203125 -73.65625 C 52.109375 -73.65625 60.53125 -70.8125 66.46875 -65.125 C 72.414062 -59.445312 75.390625 -51.257812 75.390625 -40.5625 L 75.390625 -29.453125 L 30.734375 -29.453125 C 30.898438 -25.410156 32.378906 -22.238281 35.171875 -19.9375 C 37.960938 -17.632812 41.765625 -16.484375 46.578125 -16.484375 C 50.960938 -16.484375 54.992188 -16.894531 58.671875 -17.71875 C 62.359375 -18.550781 66.351562 -19.972656 70.65625 -21.984375 L 70.65625 -4.03125 C 66.738281 -2.019531 62.691406 -0.632812 58.515625 0.125 C 54.347656 0.894531 49.367188 1.28125 43.578125 1.28125 Z M 42.109375 -56.671875 C 39.160156 -56.671875 36.695312 -55.742188 34.71875 -53.890625 C 32.738281 -52.035156 31.578125 -49.128906 31.234375 -45.171875 L 52.703125 -45.171875 C 52.617188 -48.660156 51.628906 -51.445312 49.734375 -53.53125 C 47.835938 -55.625 45.296875 -56.671875 42.109375 -56.671875 Z M 42.109375 -56.671875 "/></g></g></g><g fill="#ffffff" fill-opacity="1"><g transform="translate(470.133714, 613.082382)"><g><path d="M 44.078125 -18.46875 C 47.441406 -18.46875 51.46875 -19.296875 56.15625 -20.953125 L 56.15625 -2.75 C 52.789062 -1.300781 49.582031 -0.269531 46.53125 0.34375 C 43.488281 0.96875 39.925781 1.28125 35.84375 1.28125 C 27.445312 1.28125 21.394531 -0.769531 17.6875 -4.875 C 13.988281 -8.988281 12.140625 -15.304688 12.140625 -23.828125 L 12.140625 -53.671875 L 3.390625 -53.671875 L 3.390625 -63.828125 L 14.5 -71.6875 L 20.953125 -86.890625 L 37.3125 -86.890625 L 37.3125 -72.390625 L 55.078125 -72.390625 L 55.078125 -53.671875 L 37.3125 -53.671875 L 37.3125 -25.484375 C 37.3125 -20.804688 39.566406 -18.46875 44.078125 -18.46875 Z M 44.078125 -18.46875 "/></g></g></g></svg>